<?xml version="1.0" encoding="UTF-8"?>
<svg width="480px" height="480px" viewBox="0 0 480 480" version="1.1" xmlns="http://www.w3.org/2000/svg" xmlns:xlink="http://www.w3.org/1999/xlink">
    <title>favicon</title>
    <defs>
        <path d="M160.242825,0 L319.757175,0 C375.477096,0 395.682486,5.8016007 416.052856,16.695794 C436.423227,27.5899873 452.410013,43.5767732 463.304206,63.9471435 C474.198399,84.3175139 480,104.522904 480,160.242825 L480,319.757175 C480,375.477096 474.198399,395.682486 463.304206,416.052856 C452.410013,436.423227 436.423227,452.410013 416.052856,463.304206 C395.682486,474.198399 375.477096,480 319.757175,480 L160.242825,480 C104.522904,480 84.3175139,474.198399 63.9471435,463.304206 C43.5767732,452.410013 27.5899873,436.423227 16.695794,416.052856 C5.8016007,395.682486 0,375.477096 0,319.757175 L0,160.242825 C0,104.522904 5.8016007,84.3175139 16.695794,63.9471435 C27.5899873,43.5767732 43.5767732,27.5899873 63.9471435,16.695794 C84.3175139,5.8016007 104.522904,0 160.242825,0 Z" id="path-1"></path>
        <filter x="-2.9%" y="-2.1%" width="105.8%" height="105.8%" filterUnits="objectBoundingBox" id="filter-2">
            <feOffset dx="0" dy="4" in="SourceAlpha" result="shadowOffsetOuter1"></feOffset>
            <feGaussianBlur stdDeviation="4" in="shadowOffsetOuter1" result="shadowBlurOuter1"></feGaussianBlur>
            <feComposite in="shadowBlurOuter1" in2="SourceAlpha" operator="out" result="shadowBlurOuter1"></feComposite>
            <feColorMatrix values="0 0 0 0 1   0 0 0 0 1   0 0 0 0 1  0 0 0 0.25 0" type="matrix" in="shadowBlurOuter1"></feColorMatrix>
        </filter>
    </defs>
    <g id="favicon" stroke="none" fill="none" fill-rule="evenodd" stroke-width="1">
        <g id="logo">
            <g id="Rectangle">
                <use fill="black" fill-opacity="1" filter="url(#filter-2)" xlink:href="#path-1"></use>
                <path stroke-opacity="0.05" stroke="#000000" stroke-width="1" d="M319.757175,0.5 C375.335497,0.5 395.496568,6.26918393 415.817057,17.1367006 C436.099005,27.9836047 452.016396,43.9009957 462.863299,64.1829429 C473.730816,84.5034324 479.5,104.664503 479.5,160.242825 L479.5,319.757175 C479.5,375.335497 473.730816,395.496568 462.863299,415.817057 C452.016396,436.099005 436.099005,452.016396 415.817057,462.863299 C395.496568,473.730816 375.335497,479.5 319.757175,479.5 L160.242825,479.5 C104.664503,479.5 84.5034324,473.730816 64.1829429,462.863299 C43.9009957,452.016396 27.9836047,436.099005 17.1367006,415.817057 C6.26918393,395.496568 0.5,375.335497 0.5,319.757175 L0.5,160.242825 C0.5,104.664503 6.26918393,84.5034324 17.1367006,64.1829429 C27.9836047,43.9009957 43.9009957,27.9836047 64.1829429,17.1367006 C84.5034324,6.26918393 104.664503,0.5 160.242825,0.5 L319.757175,0.5 Z" stroke-linejoin="square" fill="#000000" fill-rule="evenodd"></path>
            </g>
            <path d="M333.316586,238.160929 C336.841239,241.563067 340.835846,241.915012 344.3605,238.39556 L371.61782,211.178461 C374.907497,207.893638 374.790009,203.670296 371.265355,200.385473 L364.568513,193.698514 C360.808883,189.944431 358.694091,189.475171 354.581995,189.827116 L345.065431,190.765637 L337.663658,183.492102 L340.60087,171.291333 C342.010731,165.073634 339.895939,159.090565 333.786539,152.872865 L311.816199,131.169575 C289.02344,108.87971 239.678291,110.052861 219.352789,132.108096 C215.47567,136.331439 216.063112,140.789412 218.53037,143.722289 C220.410185,145.83396 223.934838,147.359056 226.87205,145.951275 C243.437921,138.20848 260.826212,136.096809 275.159803,143.253029 L265.760727,166.481415 C262.941004,173.75495 264.468354,178.916813 269.167892,183.844047 L289.610882,204.139556 C293.135536,207.659008 296.660189,208.597529 302.417123,207.424378 L316.398249,204.726131 L323.682533,212.116981 L322.860114,221.384873 C322.507648,225.842846 322.860114,228.071832 326.619744,231.7086 L333.316586,238.160929 Z M111.968345,346.44275 L124.304633,358.878148 C132.998778,367.676779 143.925204,366.972889 152.736838,356.883792 L280.68176,212.351612 L259.533839,191.234897 L114.318114,318.404445 C104.096619,327.320391 103.2742,337.878749 111.968345,346.44275 Z" id="Shape" fill="#FFFFFF" fill-rule="nonzero"></path>
        </g>
    </g>
</svg>