<?xml version="1.0" encoding="UTF-8"?>
<svg width="480px" height="480px" viewBox="0 0 480 480" version="1.1" xmlns="http://www.w3.org/2000/svg" xmlns:xlink="http://www.w3.org/1999/xlink">
    <title>favicon</title>
    <g id="favicon" stroke="none" fill="none" fill-rule="evenodd" stroke-width="1">
        <g id="logo">
            <path d="M319.757175,5 C374.06111,5 393.823301,10.477433 413.694862,21.10486 C433.181002,31.5261616 448.473839,46.8189981 458.89514,66.3051377 C469.522567,86.1766985 475,105.93889 475,160.242825 L475,319.757175 C475,374.06111 469.522567,393.823301 458.89514,413.694862 C448.473839,433.181002 433.181002,448.473839 413.694862,458.89514 C393.823301,469.522567 374.06111,475 319.757175,475 L160.242825,475 C105.93889,475 86.1766985,469.522567 66.3051378,458.89514 C46.8189981,448.473839 31.5261616,433.181002 21.10486,413.694862 C10.477433,393.823301 5,374.06111 5,319.757175 L5,160.242825 C5,105.93889 10.477433,86.1766985 21.10486,66.3051378 C31.5261616,46.8189981 46.8189981,31.5261616 66.3051378,21.10486 C86.1766985,10.477433 105.93889,5 160.242825,5 L319.757175,5 Z" id="Rectangle" stroke-opacity="0.1" stroke="#000000" stroke-width="10" fill="#FFFFFF"></path>
            <path d="M333.316586,238.160929 C336.841239,241.563067 340.835846,241.915012 344.3605,238.39556 L371.61782,211.178461 C374.907497,207.893638 374.790009,203.670296 371.265355,200.385473 L364.568513,193.698514 C360.808883,189.944431 358.694091,189.475171 354.581995,189.827116 L345.065431,190.765637 L337.663658,183.492102 L340.60087,171.291333 C342.010731,165.073634 339.895939,159.090565 333.786539,152.872865 L311.816199,131.169575 C289.02344,108.87971 239.678291,110.052861 219.352789,132.108096 C215.47567,136.331439 216.063112,140.789412 218.53037,143.722289 C220.410185,145.83396 223.934838,147.359056 226.87205,145.951275 C243.437921,138.20848 260.826212,136.096809 275.159803,143.253029 L265.760727,166.481415 C262.941004,173.75495 264.468354,178.916813 269.167892,183.844047 L289.610882,204.139556 C293.135536,207.659008 296.660189,208.597529 302.417123,207.424378 L316.398249,204.726131 L323.682533,212.116981 L322.860114,221.384873 C322.507648,225.842846 322.860114,228.071832 326.619744,231.7086 L333.316586,238.160929 Z M111.968345,346.44275 L124.304633,358.878148 C132.998778,367.676779 143.925204,366.972889 152.736838,356.883792 L280.68176,212.351612 L259.533839,191.234897 L114.318114,318.404445 C104.096619,327.320391 103.2742,337.878749 111.968345,346.44275 Z" id="Shape" fill="#000000" fill-rule="nonzero"></path>
        </g>
    </g>
</svg>